<svg xmlns="http://www.w3.org/2000/svg" width="150" height="61" viewBox="0 0 150 61" fill="none"><path d="M62.0649 48.2654L62.5963 48.354L60.7365 54.199H43.9985V53.579H44.7956C45.6812 53.579 46.3897 53.3134 46.7439 52.6934C47.0096 52.3392 47.0982 51.5422 47.0982 50.3023V36.4869C47.0982 35.1585 46.921 34.2729 46.6554 33.9187C46.2126 33.4759 45.5926 33.2102 44.7956 33.2102H43.9985V32.6788H53.8288V33.2988C52.6775 33.2988 51.8804 33.3873 51.4376 33.653C50.9948 33.9187 50.6406 34.1844 50.4635 34.5386C50.2863 34.8928 50.1978 35.6899 50.1978 37.0183V50.6566C50.1978 51.5422 50.2863 52.1621 50.4635 52.5163C50.552 52.6934 50.8177 52.8706 51.0834 52.9591C51.3491 53.0477 52.1461 53.1362 53.5631 53.1362H55.1572C56.8398 53.1362 57.9911 53.0477 58.6111 52.782C59.3195 52.5163 59.9395 52.0735 60.4708 51.4536C61.0022 50.8337 61.5336 49.5938 62.0649 48.2654Z" fill="#919292"></path><path d="M70.1255 33.8301V42.4204H74.9078C76.1477 42.4204 76.9447 42.2433 77.3875 41.889C77.9189 41.3577 78.2731 40.5606 78.2731 39.3208H78.893V46.8484H78.3617C78.1846 45.7857 78.096 45.1658 77.9189 44.8115C77.7417 44.4573 77.3875 44.103 76.9447 43.9259C76.5019 43.7488 75.882 43.5717 74.9078 43.5717H70.1255V50.7451C70.1255 51.7192 70.2141 52.3391 70.3026 52.5163C70.3912 52.6934 70.5683 52.8705 70.7455 53.0476C70.9226 53.1362 71.3654 53.2248 71.9853 53.2248H75.7049C76.9447 53.2248 77.8303 53.1362 78.3617 52.9591C78.893 52.7819 79.4244 52.4277 79.9558 51.9849C80.5757 51.365 81.2842 50.3023 81.9927 48.9739H82.6126L80.7528 54.376H64.0148V53.7561H64.8119C65.3432 53.7561 65.7861 53.6676 66.2289 53.4019C66.5831 53.2247 66.8488 52.9591 66.9373 52.6048C67.0259 52.2506 67.1145 51.5421 67.1145 50.4794V36.3097C67.1145 34.8928 66.9373 34.0957 66.6717 33.7415C66.3174 33.2987 65.6089 33.1216 64.7233 33.1216H63.9263V32.5902H80.6643L80.9299 37.3725H80.31C80.1329 36.2212 79.8672 35.4241 79.6015 35.0699C79.3358 34.7157 78.893 34.2729 78.3617 34.1843C77.9189 34.0072 77.2104 33.9186 76.1477 33.9186L70.1255 33.8301Z" fill="#919292"></path><path d="M103.421 32.0583L103.953 38.8774H103.421C102.89 37.1948 102.093 35.8664 101.207 34.9808C99.8788 33.7409 98.2847 33.121 96.2478 33.121C93.5024 33.121 91.377 34.1837 89.96 36.3977C88.7202 38.2575 88.1888 40.4715 88.1888 42.9512C88.1888 44.9881 88.6316 46.9364 89.4286 48.6191C90.2257 50.3017 91.2884 51.5415 92.5283 52.3386C93.8567 53.1356 95.1851 53.4899 96.5135 53.4899C97.3105 53.4899 98.1076 53.4013 98.8161 53.2242C99.5246 53.0471 100.322 52.6928 101.03 52.3386V46.0508C101.03 44.9881 100.942 44.2796 100.764 43.9254C100.587 43.5711 100.322 43.3054 99.9674 43.1283C99.6131 42.9512 98.9932 42.8626 98.1076 42.8626V42.2427H106.521V42.8626H106.167C105.37 42.8626 104.75 43.1283 104.484 43.6597C104.307 44.1025 104.13 44.811 104.13 45.9622V52.6043C102.89 53.2242 101.65 53.7555 100.499 54.0212C99.2589 54.2869 97.9305 54.464 96.5135 54.464C92.3511 54.464 89.163 53.1356 86.9489 50.4788C85.3548 48.4419 84.4692 46.1394 84.4692 43.4826C84.4692 41.6228 84.912 39.763 85.7976 37.9918C86.8604 35.9549 88.3659 34.2723 90.3142 33.2096C91.9083 32.2354 93.7681 31.7926 95.8936 31.7926C96.6906 31.7926 97.3991 31.8812 98.019 31.9697C98.639 32.0583 99.6131 32.4125 100.764 32.8553C101.384 33.0324 101.739 33.2096 102.004 33.2096C102.181 33.2096 102.359 33.121 102.536 32.9439C102.713 32.7668 102.801 32.4125 102.801 31.8812H103.421V32.0583Z" fill="#919292"></path><path d="M121.935 47.1137H113.521L112.016 50.479C111.662 51.276 111.484 51.9845 111.484 52.3388C111.484 52.693 111.662 52.9587 111.927 53.2244C112.282 53.4901 112.901 53.6672 113.964 53.6672V54.2871H107.145V53.6672C108.031 53.4901 108.651 53.3129 108.916 53.0473C109.448 52.5159 110.068 51.4532 110.687 49.9476L118.304 32.0585H118.835L126.363 50.1248C126.983 51.5417 127.514 52.5159 128.045 52.9587C128.577 53.4015 129.197 53.6672 130.082 53.6672V54.2871H121.492V53.6672C122.377 53.6672 122.909 53.4901 123.263 53.2244C123.529 52.9587 123.706 52.693 123.706 52.3388C123.706 51.896 123.529 51.0989 123.086 50.1248L121.935 47.1137ZM121.492 45.7853L117.772 37.0178L113.964 45.7853H121.492Z" fill="#919292"></path><path d="M149.387 48.2654L149.919 48.354L148.059 54.199H131.321V53.579H132.118C133.003 53.579 133.712 53.3134 134.066 52.6934C134.332 52.3392 134.42 51.5422 134.42 50.3023V36.4869C134.42 35.1585 134.243 34.2729 133.978 33.9187C133.535 33.4759 132.915 33.2102 132.118 33.2102H131.321V32.6788H141.151V33.2988C140 33.2988 139.203 33.3873 138.76 33.653C138.317 33.9187 137.963 34.1844 137.786 34.5386C137.609 34.8928 137.52 35.6899 137.52 37.0183V50.6566C137.52 51.5422 137.609 52.1621 137.786 52.5163C137.874 52.6934 138.14 52.8706 138.406 52.9591C138.671 53.0477 139.468 53.1362 140.885 53.1362H142.479C144.162 53.1362 145.313 53.0477 145.933 52.782C146.642 52.5163 147.262 52.0735 147.793 51.4536C148.324 50.6566 148.856 49.5938 149.387 48.2654Z" fill="#919292"></path><path d="M15.0401 0.619922C17.1656 1.06272 18.7597 1.68264 19.0254 1.85977C18.9368 1.85977 18.8483 1.85977 17.6084 1.50552C14.863 0.708482 12.5604 0.0885603 9.28369 0C11.232 0.0885603 13.1804 0.265681 15.0401 0.619922Z" fill="url(#paint0_linear_23938_6928)"></path><path d="M21.7706 3.45406C23.7189 4.60534 24.6045 5.66807 23.9846 5.84519C22.7447 6.11087 16.5455 1.77141 16.2798 1.41717C16.2798 1.41717 16.2798 1.41717 16.2798 1.32861C16.2798 1.32861 16.2798 1.32861 16.3683 1.32861C17.0768 1.41717 19.6451 2.21422 21.7706 3.45406Z" fill="url(#paint1_linear_23938_6928)"></path><path d="M24.9566 8.23583C26.3736 10.0956 26.0194 11.7782 24.2481 11.5126C20.9714 11.1583 17.9603 6.11039 19.1116 5.04766C19.2887 4.87054 19.4659 4.87054 19.7315 4.87054C21.4142 4.9591 23.8053 6.73031 24.9566 8.23583Z" fill="url(#paint2_linear_23938_6928)"></path><path d="M23.718 14.7895C24.6036 18.0663 21.4154 20.0146 18.4043 18.0663C14.8619 15.8522 15.1276 11.07 18.0501 10.4501C18.2272 10.4501 18.4929 10.3615 18.67 10.3615C21.0611 10.4501 23.1866 12.6641 23.718 14.7895Z" fill="url(#paint3_linear_23938_6928)"></path><path d="M18.4047 22.4054C18.4047 26.6562 13.2682 28.6046 10.08 25.505C7.15752 22.671 8.57449 17.446 13.2682 17.1803C16.8106 17.446 18.4047 20.3685 18.4047 22.4054Z" fill="url(#paint4_linear_23938_6928)"></path><path d="M10.2571 31.1734C9.81435 35.7786 3.96934 37.5498 1.13539 34.0074C-1.16719 31.1734 -0.0158959 25.6827 5.03207 25.417C8.66306 25.417 10.5228 28.3395 10.2571 31.1734Z" fill="url(#paint5_linear_23938_6928)"></path><path d="M26.8182 5.84519C20.9732 2.4799 20.9732 2.4799 17.8735 1.32861C21.1503 2.39134 24.1613 3.89686 26.8182 5.84519Z" fill="url(#paint6_linear_23938_6928)"></path><path d="M29.5619 8.23583C31.5102 10.0956 32.3073 11.5126 31.6873 11.5126C31.5102 11.5126 30.7132 11.3354 28.4991 9.21C28.4991 9.21 24.2482 5.13623 24.691 4.87054C24.691 4.87054 24.691 4.87054 24.7796 4.87054C25.311 4.9591 27.525 6.28751 29.5619 8.23583Z" fill="url(#paint7_linear_23938_6928)"></path><path d="M32.6623 14.7895C33.9907 17.3578 33.5479 19.3061 31.7767 18.7747C28.5885 17.8006 25.9317 11.2471 27.5258 10.4501C27.6144 10.3615 27.7915 10.3615 27.88 10.3615C29.5627 10.4501 31.6882 12.6641 32.6623 14.7895Z" fill="url(#paint8_linear_23938_6928)"></path><path d="M31.4241 22.4054C31.9554 26.1249 29.1215 28.2503 26.4647 26.1249C23.2765 23.5566 23.2765 17.6231 26.5532 17.1803C26.6418 17.1803 26.8189 17.1803 26.9075 17.1803C29.2986 17.446 31.0698 20.1028 31.4241 22.4054Z" fill="url(#paint9_linear_23938_6928)"></path><path d="M26.1087 31.1734C25.7544 35.5129 21.1493 37.4612 18.4039 34.3616C15.7471 31.3506 17.164 25.5941 21.5921 25.417C25.1345 25.417 26.3744 28.7823 26.1087 31.1734Z" fill="url(#paint10_linear_23938_6928)"></path><path d="M18.2271 39.5861C17.3415 43.9256 11.8507 45.3425 9.37103 41.7116C7.33413 38.7005 9.19391 34.2725 13.7105 34.0068C17.5186 34.2725 18.6699 37.3721 18.2271 39.5861Z" fill="url(#paint11_linear_23938_6928)"></path><path d="M36.9126 18.7747C36.6469 18.4205 31.6875 10.3615 31.6875 10.3615C33.9015 12.7526 35.6727 15.6751 36.9126 18.7747Z" fill="url(#paint12_linear_23938_6928)"></path><path d="M37.886 22.4054C38.5945 25.3279 38.3288 27.4534 37.2661 26.922C35.4063 25.8593 33.3694 17.7117 34.7864 17.2689H34.8749C36.0262 17.446 37.2661 20.1028 37.886 22.4054Z" fill="url(#paint13_linear_23938_6928)"></path><path d="M36.6496 31.1734C36.3839 34.893 34.347 37.0184 32.5758 35.3358C30.2732 33.0332 30.8046 25.6827 33.9042 25.417C35.764 25.417 36.7381 28.3395 36.6496 31.1734Z" fill="url(#paint14_linear_23938_6928)"></path><path d="M31.1574 39.5862C29.9175 43.4828 26.1094 45.1655 24.6039 42.5087C23.0098 39.6748 25.0467 34.3611 28.6777 34.0955C31.1574 34.2726 31.8659 37.0179 31.1574 39.5862Z" fill="url(#paint15_linear_23938_6928)"></path><path d="M23.2756 47.1137C21.6815 50.479 17.342 52.0731 16.0136 48.9735C14.9509 46.3167 17.1649 42.5086 20.7959 42.3315C23.6298 42.42 24.2498 44.8997 23.2756 47.1137Z" fill="url(#paint16_linear_23938_6928)"></path><path d="M39.2146 30.2878C39.2146 32.1476 39.0375 34.0074 38.6832 35.7786C38.5061 34.893 38.6832 25.5056 38.7718 25.3285C39.0375 26.9225 39.2146 28.5166 39.2146 30.2878Z" fill="url(#paint17_linear_23938_6928)"></path><path d="M37.5333 39.5862C36.4705 42.6858 34.965 44.6341 34.4336 43.4828C33.6366 41.9773 35.6735 34.4497 37.6218 34.0955C38.596 34.2726 38.3303 37.0179 37.5333 39.5862Z" fill="url(#paint18_linear_23938_6928)"></path><path d="M31.9536 47.1137C30.271 49.7705 27.3485 51.7189 26.9057 50.0362C26.3743 47.9993 29.3854 42.5086 32.2193 42.3315C33.8134 42.42 33.3706 44.8997 31.9536 47.1137Z" fill="url(#paint19_linear_23938_6928)"></path><path d="M24.0726 53.3128C22.39 55.084 18.6704 57.1209 18.6704 55.1726C18.6704 53.4013 21.3272 49.5933 24.3383 49.4161C26.2866 49.4161 25.7553 51.5416 24.0726 53.3128Z" fill="url(#paint20_linear_23938_6928)"></path><path d="M31.3359 50.6561C31.3359 50.5676 36.6496 42.42 36.7381 42.3315C35.4097 45.3425 33.55 48.1765 31.3359 50.6561Z" fill="url(#paint21_linear_23938_6928)"></path><path d="M28.4109 53.3133C26.374 54.996 24.2485 56.2358 24.16 55.9701C24.0714 55.7045 27.3482 52.5163 28.4994 51.4536C29.4736 50.568 30.7135 49.5938 31.3334 49.5052C32.0419 49.4167 30.5363 51.5421 28.4109 53.3133Z" fill="url(#paint22_linear_23938_6928)"></path><path d="M20.5309 57.8297C18.4055 58.8924 16.1915 59.4237 15.9258 59.4237C15.9258 59.4237 15.9258 59.4237 15.9258 59.3352C15.9258 59.3352 21.6822 55.1728 23.542 55.0843C24.3391 55.1728 23.2763 56.147 23.0106 56.3241C22.3907 56.6784 21.5051 57.2097 20.5309 57.8297Z" fill="url(#paint23_linear_23938_6928)"></path><path d="M17.3403 59.3351C18.2259 59.0694 19.6429 58.6266 21.4141 57.741C23.0968 56.944 24.6909 55.8813 26.3735 54.9957C23.7167 56.944 20.6171 58.361 17.3403 59.3351Z" fill="url(#paint24_linear_23938_6928)"></path><path d="M13.5342 60.1327C12.0286 60.3983 10.5231 60.4869 9.01758 60.4869C12.3829 60.4869 14.6855 59.867 17.2537 59.1585C18.0508 58.8928 18.405 58.8043 18.5821 58.8043C18.3165 58.9814 16.1024 59.7784 13.5342 60.1327Z" fill="url(#paint25_linear_23938_6928)"></path><path d="M62.8636 5.22506L63.395 12.0442H62.8636C62.3323 10.3616 61.5352 9.03315 60.6496 8.14755C59.3212 6.90771 57.7271 6.28778 55.6902 6.28778C52.9448 6.28778 50.8194 7.35051 49.4024 9.56451C48.1625 11.4243 47.6312 13.6383 47.6312 16.118C47.6312 18.1549 48.074 20.1032 48.871 21.7858C49.6681 23.4685 50.7308 24.7083 51.9706 25.5054C53.2991 26.3024 54.6275 26.6566 55.9559 26.6566C56.7529 26.6566 57.55 26.5681 58.2585 26.391C58.9669 26.2138 59.764 25.8596 60.4725 25.5054V19.2176C60.4725 18.1549 60.3839 17.4464 60.2068 17.0921C60.0297 16.7379 59.764 16.4722 59.4097 16.2951C59.0555 16.118 58.4356 16.0294 57.55 16.0294V15.4095H65.9632V16.0294H65.609C64.812 16.0294 64.192 16.2951 63.9263 16.8265C63.7492 17.2693 63.5721 17.9777 63.5721 19.129V25.771C62.3323 26.391 61.0924 26.9223 59.9411 27.188C58.7013 27.4537 57.3729 27.6308 55.9559 27.6308C51.7935 27.6308 48.6053 26.3024 46.3913 23.6456C44.7972 21.6087 43.9116 19.3061 43.9116 16.6493C43.9116 14.7896 44.3544 12.9298 45.24 11.1586C46.3028 9.12171 47.8083 7.43907 49.7566 6.37635C51.3507 5.40218 53.2105 4.95938 55.336 4.95938C56.133 4.95938 56.8415 5.04794 57.4614 5.1365C58.0813 5.22506 59.0555 5.5793 60.2068 6.0221C60.8267 6.19922 61.181 6.37635 61.4466 6.37635C61.6238 6.37635 61.8009 6.28778 61.978 6.11066C62.1551 5.93354 62.2437 5.5793 62.2437 5.04794H62.8636V5.22506Z" fill="#B51C17"></path><path d="M73.1382 17.269V23.5568C73.1382 24.8852 73.3153 25.7708 73.581 26.125C74.0238 26.5678 74.5552 26.8335 75.4408 26.8335H76.2378V27.4535H66.939V26.8335H67.736C68.6216 26.8335 69.3301 26.5679 69.6843 25.9479C69.8615 25.5937 70.0386 24.7966 70.0386 23.5568V9.56428C70.0386 8.23588 69.8615 7.35028 69.5958 6.99604C69.153 6.55324 68.5331 6.28755 67.736 6.28755H66.939V5.66763H74.9094C76.8578 5.66763 78.3633 5.84475 79.5146 6.28755C80.6659 6.73036 81.5515 7.35028 82.3485 8.32444C83.1456 9.2986 83.4998 10.3613 83.4998 11.6897C83.4998 13.4609 82.8799 14.8779 81.7286 16.0292C80.5773 17.1805 78.8947 17.7118 76.7692 17.7118C76.2378 17.7118 75.7065 17.7118 75.0866 17.6233C74.4666 17.5347 73.8467 17.4461 73.1382 17.269ZM73.1382 16.3834C73.6696 16.472 74.2009 16.5605 74.6438 16.6491C75.0866 16.7377 75.4408 16.7377 75.795 16.7377C76.9463 16.7377 77.8319 16.2949 78.629 15.4093C79.426 14.5237 79.8688 13.4609 79.8688 12.044C79.8688 11.0698 79.6917 10.2728 79.3375 9.38716C78.9832 8.59012 78.4519 7.9702 77.7434 7.61596C77.0349 7.17316 76.2378 6.99604 75.3522 6.99604C74.8209 6.99604 74.1124 7.0846 73.2268 7.26172L73.1382 16.3834Z" fill="#B51C17"></path><path d="M99.7053 5.22525V12.7529H99.0853C98.9082 11.3359 98.554 10.1846 98.0226 9.29902C97.4912 8.41342 96.7828 7.7935 95.8971 7.26214C95.0115 6.73077 94.0374 6.46509 93.0632 6.46509C91.9119 6.46509 91.0263 6.81934 90.3178 7.52782C89.6093 8.2363 89.2551 8.94478 89.2551 9.83038C89.2551 10.4503 89.5208 11.0702 89.9636 11.6901C90.5835 12.4872 92.1776 13.5499 94.6573 14.8783C96.6942 15.941 98.0226 16.8266 98.8196 17.358C99.6167 17.8894 100.148 18.5978 100.502 19.3949C100.945 20.1919 101.122 20.989 101.122 21.8746C101.122 23.5572 100.502 24.8856 99.1739 26.1255C97.934 27.2768 96.2514 27.8967 94.3031 27.8967C93.6831 27.8967 93.0632 27.8081 92.5318 27.7196C92.1776 27.631 91.5577 27.4539 90.4949 27.0996C89.4322 26.7454 88.8123 26.5683 88.5466 26.5683C88.2809 26.5683 88.1038 26.6568 87.9267 26.834C87.7496 27.0111 87.661 27.3653 87.5724 27.8081H86.9525V20.3691H87.5724C87.8381 21.9631 88.1924 23.1144 88.7237 23.8229C89.1665 24.6199 89.875 25.2399 90.8492 25.7712C91.8234 26.3026 92.8861 26.5683 94.0374 26.5683C95.3658 26.5683 96.4285 26.214 97.2256 25.5055C98.0226 24.7971 98.3768 24 98.3768 23.0259C98.3768 22.4945 98.1997 21.9631 97.934 21.4318C97.6684 20.9004 97.137 20.3691 96.5171 19.9263C96.0743 19.572 95.0115 18.9521 93.1518 17.8894C91.292 16.8266 89.9636 16.0296 89.1665 15.4097C88.3695 14.7898 87.7496 14.0813 87.3953 13.3728C86.9525 12.6643 86.7754 11.7787 86.7754 10.8931C86.7754 9.29902 87.3953 7.97062 88.5466 6.9079C89.6979 5.75661 91.292 5.22525 93.0632 5.22525C94.2145 5.22525 95.4543 5.49093 96.7828 6.11085C97.4027 6.37653 97.7569 6.55365 98.0226 6.55365C98.2883 6.55365 98.554 6.46509 98.7311 6.28797C98.9082 6.11085 99.0853 5.75661 99.1739 5.31381L99.7053 5.22525Z" fill="#B51C17"></path><defs><linearGradient id="paint0_linear_23938_6928" x1="19.0094" y1="0.929883" x2="9.31318" y2="0.929883" gradientUnits="userSpaceOnUse"><stop stop-color="#A4282E"></stop><stop offset="1" stop-color="#E4282B"></stop></linearGradient><linearGradient id="paint1_linear_23938_6928" x1="24.1801" y1="3.59274" x2="16.306" y2="3.59274" gradientUnits="userSpaceOnUse"><stop stop-color="#A4282E"></stop><stop offset="1" stop-color="#E4282B"></stop></linearGradient><linearGradient id="paint2_linear_23938_6928" x1="25.815" y1="8.20546" x2="18.887" y2="8.20546" gradientUnits="userSpaceOnUse"><stop stop-color="#A4282E"></stop><stop offset="1" stop-color="#E4282B"></stop></linearGradient><linearGradient id="paint3_linear_23938_6928" x1="23.8355" y1="14.6022" x2="15.7803" y2="14.6022" gradientUnits="userSpaceOnUse"><stop stop-color="#A4282E"></stop><stop offset="1" stop-color="#E4282B"></stop></linearGradient><linearGradient id="paint4_linear_23938_6928" x1="18.373" y1="22.1021" x2="8.56705" y2="22.1021" gradientUnits="userSpaceOnUse"><stop stop-color="#A4282E"></stop><stop offset="1" stop-color="#E4282B"></stop></linearGradient><linearGradient id="paint5_linear_23938_6928" x1="10.3042" y1="30.6501" x2="0.00367638" y2="30.6501" gradientUnits="userSpaceOnUse"><stop stop-color="#A4282E"></stop><stop offset="1" stop-color="#E4282B"></stop></linearGradient><linearGradient id="paint6_linear_23938_6928" x1="26.8023" y1="3.5869" x2="17.8577" y2="3.5869" gradientUnits="userSpaceOnUse"><stop stop-color="#A4282E"></stop><stop offset="1" stop-color="#E4282B"></stop></linearGradient><linearGradient id="paint7_linear_23938_6928" x1="31.8301" y1="8.19155" x2="24.5737" y2="8.19155" gradientUnits="userSpaceOnUse"><stop stop-color="#A4282E"></stop><stop offset="1" stop-color="#E4282B"></stop></linearGradient><linearGradient id="paint8_linear_23938_6928" x1="33.4093" y1="14.612" x2="27.0595" y2="14.612" gradientUnits="userSpaceOnUse"><stop stop-color="#A4282E"></stop><stop offset="1" stop-color="#E4282B"></stop></linearGradient><linearGradient id="paint9_linear_23938_6928" x1="31.5007" y1="22.0748" x2="24.0565" y2="22.0748" gradientUnits="userSpaceOnUse"><stop stop-color="#A4282E"></stop><stop offset="1" stop-color="#E4282B"></stop></linearGradient><linearGradient id="paint10_linear_23938_6928" x1="26.1433" y1="30.6471" x2="17.0649" y2="30.6471" gradientUnits="userSpaceOnUse"><stop stop-color="#A4282E"></stop><stop offset="1" stop-color="#E4282B"></stop></linearGradient><linearGradient id="paint11_linear_23938_6928" x1="18.3167" y1="38.8947" x2="8.53262" y2="38.8947" gradientUnits="userSpaceOnUse"><stop stop-color="#A4282E"></stop><stop offset="1" stop-color="#E4282B"></stop></linearGradient><linearGradient id="paint12_linear_23938_6928" x1="36.9126" y1="14.5681" x2="31.6573" y2="14.5681" gradientUnits="userSpaceOnUse"><stop stop-color="#A4282E"></stop><stop offset="1" stop-color="#E4282B"></stop></linearGradient><linearGradient id="paint13_linear_23938_6928" x1="38.3098" y1="22.1363" x2="34.3579" y2="22.1363" gradientUnits="userSpaceOnUse"><stop stop-color="#A4282E"></stop><stop offset="1" stop-color="#E4282B"></stop></linearGradient><linearGradient id="paint14_linear_23938_6928" x1="36.6082" y1="30.6685" x2="31.126" y2="30.6685" gradientUnits="userSpaceOnUse"><stop stop-color="#A4282E"></stop><stop offset="1" stop-color="#E4282B"></stop></linearGradient><linearGradient id="paint15_linear_23938_6928" x1="31.4019" y1="38.9466" x2="23.9888" y2="38.9466" gradientUnits="userSpaceOnUse"><stop stop-color="#A4282E"></stop><stop offset="1" stop-color="#E4282B"></stop></linearGradient><linearGradient id="paint16_linear_23938_6928" x1="23.6899" y1="46.483" x2="15.7223" y2="46.483" gradientUnits="userSpaceOnUse"><stop stop-color="#A4282E"></stop><stop offset="1" stop-color="#E4282B"></stop></linearGradient><linearGradient id="paint17_linear_23938_6928" x1="39.1765" y1="30.5535" x2="38.6083" y2="30.5535" gradientUnits="userSpaceOnUse"><stop stop-color="#A4282E"></stop><stop offset="1" stop-color="#E4282B"></stop></linearGradient><linearGradient id="paint18_linear_23938_6928" x1="38.2211" y1="38.9564" x2="34.2091" y2="38.9564" gradientUnits="userSpaceOnUse"><stop stop-color="#A4282E"></stop><stop offset="1" stop-color="#E4282B"></stop></linearGradient><linearGradient id="paint19_linear_23938_6928" x1="33.2152" y1="46.4976" x2="26.802" y2="46.4976" gradientUnits="userSpaceOnUse"><stop stop-color="#A4282E"></stop><stop offset="1" stop-color="#E4282B"></stop></linearGradient><linearGradient id="paint20_linear_23938_6928" x1="25.5673" y1="52.691" x2="18.6633" y2="52.691" gradientUnits="userSpaceOnUse"><stop stop-color="#A4282E"></stop><stop offset="1" stop-color="#E4282B"></stop></linearGradient><linearGradient id="paint21_linear_23938_6928" x1="36.7146" y1="46.4938" x2="31.3204" y2="46.4938" gradientUnits="userSpaceOnUse"><stop stop-color="#A4282E"></stop><stop offset="1" stop-color="#E4282B"></stop></linearGradient><linearGradient id="paint22_linear_23938_6928" x1="31.5027" y1="52.7543" x2="24.161" y2="52.7543" gradientUnits="userSpaceOnUse"><stop stop-color="#A4282E"></stop><stop offset="1" stop-color="#E4282B"></stop></linearGradient><linearGradient id="paint23_linear_23938_6928" x1="23.8174" y1="57.254" x2="15.9099" y2="57.254" gradientUnits="userSpaceOnUse"><stop stop-color="#A4282E"></stop><stop offset="1" stop-color="#E4282B"></stop></linearGradient><linearGradient id="paint24_linear_23938_6928" x1="26.3735" y1="57.1654" x2="17.3403" y2="57.1654" gradientUnits="userSpaceOnUse"><stop stop-color="#A4282E"></stop><stop offset="1" stop-color="#E4282B"></stop></linearGradient><linearGradient id="paint25_linear_23938_6928" x1="18.5242" y1="59.6456" x2="8.94407" y2="59.6456" gradientUnits="userSpaceOnUse"><stop stop-color="#A4282E"></stop><stop offset="1" stop-color="#E4282B"></stop></linearGradient></defs></svg>