<?xml version="1.0" encoding="utf-8"?>
<!-- Generator: Adobe Illustrator 22.0.1, SVG Export Plug-In . SVG Version: 6.00 Build 0)  -->
<svg version="1.1" id="Layer_1" xmlns="http://www.w3.org/2000/svg" xmlns:xlink="http://www.w3.org/1999/xlink" x="0px" y="0px"
	 viewBox="0 0 265.3 84" style="enable-background:new 0 0 265.3 84;" xml:space="preserve">
<style type="text/css">
	.st0{fill:#B51C17;}
	.st1{fill:#919292;}
	.st2{enable-background:new    ;}
	.st3{fill:url(#SVGID_1_);}
	.st4{fill:url(#SVGID_2_);}
	.st5{fill:url(#SVGID_3_);}
	.st6{fill:url(#SVGID_4_);}
	.st7{fill:url(#SVGID_5_);}
	.st8{fill:url(#SVGID_6_);}
	.st9{fill:url(#SVGID_7_);}
	.st10{fill:url(#SVGID_8_);}
	.st11{fill:url(#SVGID_9_);}
	.st12{fill:url(#SVGID_10_);}
	.st13{fill:url(#SVGID_11_);}
	.st14{fill:url(#SVGID_12_);}
	.st15{fill:url(#SVGID_13_);}
	.st16{fill:url(#SVGID_14_);}
	.st17{fill:url(#SVGID_15_);}
	.st18{fill:url(#SVGID_16_);}
	.st19{fill:url(#SVGID_17_);}
	.st20{fill:url(#SVGID_18_);}
	.st21{fill:url(#SVGID_19_);}
	.st22{fill:url(#SVGID_20_);}
	.st23{fill:url(#SVGID_21_);}
	.st24{fill:url(#SVGID_22_);}
	.st25{fill:url(#SVGID_23_);}
	.st26{fill:url(#SVGID_24_);}
	.st27{fill:url(#SVGID_25_);}
	.st28{fill:url(#SVGID_26_);}
</style>
<g>
	<g>
		<path class="st0" d="M55.3,80.9C55.4,80.9,55.4,80.9,55.3,80.9l0.5,0.5c-0.3,0.3-0.7,0.6-1.1,0.8s-0.9,0.3-1.5,0.3
			c-0.5,0-1-0.1-1.4-0.3s-0.8-0.4-1.1-0.8c-0.3-0.3-0.5-0.7-0.7-1.2s-0.2-1-0.2-1.5s0.1-1.1,0.3-1.5s0.4-0.8,0.7-1.2
			c0.3-0.3,0.7-0.6,1.2-0.8c0.4-0.2,0.9-0.3,1.5-0.3c0.5,0,1,0.1,1.4,0.2c0.4,0.2,0.7,0.4,1,0.7l-0.3,0.5l-0.1,0.1h-0.1h-0.1
			c0,0-0.1-0.1-0.2-0.1s-0.1-0.1-0.2-0.2c-0.1-0.1-0.2-0.1-0.3-0.2c-0.1,0-0.3-0.1-0.4-0.1s-0.4,0-0.6,0c-0.4,0-0.7,0.1-1.1,0.2
			c-0.4,0.1-0.6,0.3-0.8,0.6c-0.2,0.2-0.4,0.5-0.5,0.9S51,78.3,51,78.7c0,0.5,0.1,0.9,0.2,1.2c0.1,0.3,0.3,0.7,0.5,0.9
			c0.2,0.2,0.5,0.4,0.8,0.6c0.3,0.1,0.6,0.2,1,0.2c0.2,0,0.4,0,0.6,0s0.3-0.1,0.5-0.1c0.1-0.1,0.3-0.1,0.4-0.2s0.3-0.2,0.4-0.3
			C55.2,80.9,55.3,80.9,55.3,80.9z"/>
		<path class="st0" d="M58.6,81.6h3.1v0.8h-4.1v-7.3h1V81.6z"/>
		<path class="st0" d="M67.8,75.1v0.8h-3.5v2.4h2.8v0.8h-2.8v2.5h3.5v0.8h-4.5v-7.3C63.3,75.1,67.8,75.1,67.8,75.1z"/>
		<path class="st0" d="M75.6,82.4h-0.8c-0.1,0-0.2,0-0.2-0.1s-0.1-0.1-0.1-0.2l-0.7-1.8h-3.3l-0.7,1.8c0,0.1-0.1,0.1-0.1,0.2
			c-0.1,0-0.1,0.1-0.2,0.1h-0.8l2.9-7.3h1L75.6,82.4z M70.9,79.8h2.7l-1.1-3c-0.1-0.2-0.1-0.4-0.2-0.7c0,0.1-0.1,0.3-0.1,0.4
			s-0.1,0.2-0.1,0.3L70.9,79.8z"/>
		<path class="st0" d="M78.1,79.4v3h-1v-7.3h2.1c0.5,0,0.9,0,1.2,0.1c0.3,0.1,0.6,0.2,0.8,0.4c0.2,0.2,0.4,0.4,0.5,0.6
			s0.2,0.5,0.2,0.8s0,0.5-0.1,0.7s-0.2,0.4-0.4,0.6c-0.2,0.2-0.3,0.3-0.6,0.5c-0.2,0.1-0.5,0.2-0.8,0.3c0.1,0.1,0.2,0.2,0.3,0.3
			l2.1,2.9h-0.9c-0.2,0-0.3-0.1-0.4-0.2l-1.9-2.6c-0.1-0.1-0.1-0.1-0.2-0.2c-0.1,0-0.2-0.1-0.3-0.1h-0.6
			C78.1,79.2,78.1,79.4,78.1,79.4z M78.1,78.8h1c0.3,0,0.5,0,0.8-0.1c0.2-0.1,0.4-0.2,0.5-0.3c0.1-0.1,0.3-0.3,0.3-0.5
			c0.1-0.2,0.1-0.4,0.1-0.6c0-0.4-0.1-0.8-0.4-1S79.7,76,79.1,76H78L78.1,78.8L78.1,78.8z"/>
		<path class="st0" d="M92.8,78.8c0,0.5-0.1,1-0.3,1.5c-0.2,0.4-0.4,0.8-0.7,1.1s-0.7,0.6-1.1,0.7c-0.4,0.2-0.9,0.3-1.5,0.3h-2.7
			v-7.3h2.7c0.5,0,1,0.1,1.5,0.3c0.4,0.2,0.8,0.4,1.1,0.7c0.3,0.3,0.6,0.7,0.7,1.1C92.7,77.8,92.8,78.2,92.8,78.8z M91.8,78.8
			c0-0.4-0.1-0.8-0.2-1.2c-0.1-0.4-0.3-0.6-0.5-0.9c-0.2-0.2-0.5-0.4-0.8-0.6c-0.3-0.1-0.7-0.2-1.1-0.2h-1.7v5.7h1.7
			c0.4,0,0.7-0.1,1.1-0.2c0.3-0.1,0.6-0.3,0.8-0.6c0.2-0.2,0.4-0.5,0.5-0.9C91.7,79.6,91.8,79.2,91.8,78.8z"/>
		<path class="st0" d="M95.7,82.4h-1v-7.3h1V82.4z"/>
		<path class="st0" d="M99.2,79.4v3h-1v-7.3h2.1c0.5,0,0.9,0,1.2,0.1c0.3,0.1,0.6,0.2,0.8,0.4c0.2,0.2,0.4,0.4,0.5,0.6
			s0.2,0.5,0.2,0.8s0,0.5-0.1,0.7s-0.2,0.4-0.4,0.6s-0.3,0.3-0.6,0.5c-0.2,0.1-0.5,0.2-0.8,0.3c0.1,0.1,0.2,0.2,0.3,0.3l2.1,2.9
			h-0.9c-0.2,0-0.3-0.1-0.4-0.2l-1.9-2.6c-0.1-0.1-0.1-0.1-0.2-0.2c-0.1,0-0.2-0.1-0.3-0.1h-0.6C99.2,79.2,99.2,79.4,99.2,79.4z
			 M99.2,78.8h1c0.3,0,0.5,0,0.8-0.1c0.2-0.1,0.4-0.2,0.5-0.3c0.1-0.1,0.3-0.3,0.3-0.5c0.1-0.2,0.1-0.4,0.1-0.6c0-0.4-0.1-0.8-0.4-1
			s-0.7-0.3-1.3-0.3h-1.1L99.2,78.8L99.2,78.8z"/>
		<path class="st0" d="M109.6,75.1v0.8h-3.5v2.4h2.8v0.8h-2.8v2.5h3.5v0.8h-4.5v-7.3C105.1,75.1,109.6,75.1,109.6,75.1z"/>
		<path class="st0" d="M116.7,80.9C116.8,80.9,116.8,80.9,116.7,80.9l0.5,0.5c-0.3,0.3-0.7,0.6-1.1,0.8c-0.4,0.2-0.9,0.3-1.5,0.3
			c-0.5,0-1-0.1-1.4-0.3s-0.8-0.4-1.1-0.8c-0.3-0.3-0.5-0.7-0.7-1.2s-0.2-1-0.2-1.5s0.1-1.1,0.3-1.5c0.2-0.4,0.4-0.8,0.7-1.2
			c0.3-0.3,0.7-0.6,1.2-0.8c0.4-0.2,0.9-0.3,1.5-0.3c0.5,0,1,0.1,1.4,0.2c0.4,0.2,0.7,0.4,1,0.7l-0.3,0.5l-0.1,0.1h-0.1h-0.1
			c0,0-0.1-0.1-0.2-0.1s-0.1-0.1-0.2-0.2s-0.2-0.1-0.3-0.2c-0.1,0-0.3-0.1-0.4-0.1s-0.4,0-0.6,0c-0.4,0-0.7,0.1-1.1,0.2
			s-0.6,0.3-0.8,0.6c-0.2,0.2-0.4,0.5-0.5,0.9s-0.2,0.8-0.2,1.2c0,0.5,0.1,0.9,0.2,1.2c0.1,0.3,0.3,0.7,0.5,0.9
			c0.2,0.2,0.5,0.4,0.8,0.6c0.3,0.1,0.6,0.2,1,0.2c0.2,0,0.4,0,0.6,0s0.3-0.1,0.5-0.1c0.1-0.1,0.3-0.1,0.4-0.2
			S116.7,81.1,116.7,80.9C116.5,80.9,116.6,80.9,116.7,80.9z"/>
		<path class="st0" d="M123.9,75.1v0.8h-2.4v6.4h-1v-6.4h-2.4v-0.8H123.9z"/>
		<path class="st0" d="M126.6,82.4h-1v-7.3h1V82.4z"/>
		<path class="st0" d="M135.8,78.8c0,0.5-0.1,1-0.3,1.5s-0.4,0.8-0.7,1.2c-0.3,0.3-0.7,0.6-1.1,0.8c-0.4,0.2-0.9,0.3-1.5,0.3
			c-0.5,0-1-0.1-1.5-0.3c-0.4-0.2-0.8-0.4-1.1-0.8c-0.3-0.3-0.6-0.7-0.7-1.2c-0.2-0.5-0.3-1-0.3-1.5s0.1-1,0.3-1.5s0.4-0.8,0.7-1.2
			c0.3-0.3,0.7-0.6,1.1-0.8c0.4-0.2,0.9-0.3,1.5-0.3c0.5,0,1,0.1,1.5,0.3c0.4,0.2,0.8,0.4,1.1,0.8c0.3,0.3,0.6,0.7,0.7,1.2
			C135.7,77.8,135.8,78.2,135.8,78.8z M134.7,78.8c0-0.4-0.1-0.8-0.2-1.2c-0.1-0.4-0.3-0.7-0.5-0.9s-0.5-0.4-0.8-0.6
			c-0.3-0.1-0.7-0.2-1.1-0.2c-0.4,0-0.7,0.1-1.1,0.2c-0.3,0.1-0.6,0.3-0.8,0.6c-0.2,0.2-0.4,0.5-0.5,0.9s-0.2,0.8-0.2,1.2
			c0,0.4,0.1,0.8,0.2,1.2c0.1,0.4,0.3,0.7,0.5,0.9c0.2,0.2,0.5,0.4,0.8,0.6c0.3,0.1,0.7,0.2,1.1,0.2c0.4,0,0.7-0.1,1.1-0.2
			c0.3-0.1,0.6-0.3,0.8-0.6c0.2-0.2,0.4-0.5,0.5-0.9C134.7,79.6,134.7,79.2,134.7,78.8z"/>
		<path class="st0" d="M138.3,75.2l0.1,0.1l4.2,5.5c0-0.1,0-0.2,0-0.3c0-0.1,0-0.2,0-0.2v-5.2h0.9v7.3H143c-0.1,0-0.1,0-0.2,0
			c-0.1,0-0.1-0.1-0.2-0.1l-4.2-5.5c0,0.1,0,0.2,0,0.2c0,0.1,0,0.2,0,0.2v5.2h-0.9v-7.3h0.5C138.2,75.1,138.2,75.1,138.3,75.2z"/>
		<path class="st0" d="M149.3,82.4h-1v-7.3h1V82.4z"/>
		<path class="st0" d="M152.4,75.2l0.1,0.1l4.2,5.5c0-0.1,0-0.2,0-0.3c0-0.1,0-0.2,0-0.2v-5.2h0.9v7.3h-0.5c-0.1,0-0.1,0-0.2,0
			c-0.1,0-0.1-0.1-0.2-0.1l-4.2-5.5c0,0.1,0,0.2,0,0.2c0,0.1,0,0.2,0,0.2v5.2h-0.9v-7.3h0.5C152.3,75.1,152.4,75.1,152.4,75.2z"/>
		<path class="st0" d="M168.3,82.4h-0.8c-0.1,0-0.2,0-0.2-0.1c-0.1,0-0.1-0.1-0.1-0.2l-0.7-1.8h-3.3l-0.7,1.8c0,0.1-0.1,0.1-0.1,0.2
			c-0.1,0-0.1,0.1-0.2,0.1h-0.8l2.9-7.3h1L168.3,82.4z M163.5,79.8h2.7l-1.1-3c-0.1-0.2-0.1-0.4-0.2-0.7c0,0.1-0.1,0.3-0.1,0.4
			s-0.1,0.2-0.1,0.3L163.5,79.8z"/>
		<path class="st0" d="M177.2,80.9c0.1,0,0.1,0,0.1,0.1l0.4,0.4c-0.3,0.3-0.7,0.6-1.1,0.8c-0.4,0.2-0.9,0.3-1.5,0.3
			c-0.5,0-1-0.1-1.4-0.3s-0.8-0.4-1.1-0.8c-0.3-0.3-0.5-0.7-0.7-1.2s-0.2-1-0.2-1.5s0.1-1.1,0.3-1.5s0.4-0.8,0.7-1.2
			c0.3-0.3,0.7-0.6,1.2-0.8c0.4-0.2,0.9-0.3,1.5-0.3c0.5,0,1,0.1,1.4,0.2c0.4,0.2,0.7,0.4,1,0.7l-0.3,0.5l-0.1,0.1h-0.1h-0.1
			c0,0-0.1-0.1-0.2-0.1c-0.1,0-0.1-0.1-0.2-0.2c-0.1-0.1-0.2-0.1-0.3-0.2c-0.1,0-0.3-0.1-0.4-0.1c-0.2,0-0.4,0-0.6,0
			c-0.4,0-0.7,0.1-1.1,0.2c-0.4,0.1-0.6,0.3-0.8,0.6c-0.2,0.2-0.4,0.5-0.5,0.9s-0.2,0.8-0.2,1.2c0,0.5,0.1,0.9,0.2,1.2
			c0.1,0.4,0.3,0.7,0.5,0.9s0.5,0.4,0.8,0.6c0.3,0.1,0.6,0.2,1,0.2c0.2,0,0.4,0,0.6,0s0.3-0.1,0.5-0.1c0.1-0.1,0.3-0.1,0.4-0.2
			S177.2,81.1,177.2,80.9C177.1,80.9,177.2,80.9,177.2,80.9z"/>
		<path class="st0" d="M186.3,78.8c0,0.5-0.1,1-0.3,1.5s-0.4,0.8-0.7,1.2c-0.3,0.3-0.7,0.6-1.1,0.8c-0.4,0.2-0.9,0.3-1.5,0.3
			c-0.5,0-1-0.1-1.5-0.3c-0.4-0.2-0.8-0.4-1.1-0.8c-0.3-0.3-0.6-0.7-0.7-1.2c-0.2-0.5-0.3-1-0.3-1.5s0.1-1,0.3-1.5s0.4-0.8,0.7-1.2
			s0.7-0.6,1.1-0.8c0.4-0.2,0.9-0.3,1.5-0.3c0.5,0,1,0.1,1.5,0.3c0.4,0.2,0.8,0.4,1.1,0.8c0.3,0.3,0.6,0.7,0.7,1.2
			C186.2,77.8,186.3,78.2,186.3,78.8z M185.3,78.8c0-0.4-0.1-0.8-0.2-1.2s-0.3-0.7-0.5-0.9s-0.5-0.4-0.8-0.6
			c-0.3-0.1-0.7-0.2-1.1-0.2c-0.4,0-0.7,0.1-1.1,0.2c-0.4,0.1-0.6,0.3-0.8,0.6c-0.2,0.2-0.4,0.5-0.5,0.9s-0.2,0.8-0.2,1.2
			c0,0.4,0.1,0.8,0.2,1.2s0.3,0.7,0.5,0.9c0.2,0.2,0.5,0.4,0.8,0.6c0.3,0.1,0.7,0.2,1.1,0.2c0.4,0,0.7-0.1,1.1-0.2
			c0.3-0.1,0.6-0.3,0.8-0.6c0.2-0.2,0.4-0.5,0.5-0.9C185.2,79.6,185.3,79.2,185.3,78.8z"/>
		<path class="st0" d="M191.8,80.1c0,0.1,0.1,0.2,0.1,0.3c0-0.1,0.1-0.2,0.1-0.3s0.1-0.2,0.1-0.3l2.5-4.5c0-0.1,0.1-0.1,0.1-0.1
			s0.1,0,0.2,0h0.7v7.3h-0.9v-5.3c0-0.1,0-0.1,0-0.2s0-0.2,0-0.2l-2.5,4.5c-0.1,0.2-0.2,0.2-0.4,0.2h-0.1c-0.2,0-0.3-0.1-0.4-0.2
			l-2.5-4.6c0,0.1,0,0.2,0,0.3c0,0.1,0,0.2,0,0.2v5.3h-0.9v-7.3h0.7c0.1,0,0.2,0,0.2,0l0.1,0.1l2.5,4.5
			C191.7,79.9,191.8,79.9,191.8,80.1z"/>
		<path class="st0" d="M199,79.8v2.7h-1v-7.3h2.1c0.5,0,0.9,0.1,1.2,0.2s0.6,0.3,0.8,0.5s0.4,0.4,0.5,0.7c0.1,0.3,0.2,0.6,0.2,0.9
			s-0.1,0.6-0.2,0.9c-0.1,0.3-0.3,0.5-0.5,0.7s-0.5,0.4-0.9,0.5c-0.3,0.1-0.7,0.2-1.2,0.2C200,79.7,199,79.7,199,79.8z M199,78.9
			h1.2c0.3,0,0.5,0,0.7-0.1s0.4-0.2,0.5-0.3s0.3-0.3,0.3-0.5c0.1-0.2,0.1-0.4,0.1-0.6c0-0.5-0.1-0.8-0.4-1.1
			c-0.3-0.3-0.7-0.4-1.3-0.4H199V78.9z"/>
		<path class="st0" d="M205.6,81.6h3.1v0.8h-4.1v-7.3h1V81.6z"/>
		<path class="st0" d="M214.7,75.1v0.8h-3.5v2.4h2.8v0.8h-2.8v2.5h3.5v0.8h-4.5v-7.3C210.2,75.1,214.7,75.1,214.7,75.1z"/>
		<path class="st0" d="M218.3,78.8l-2.4-3.5h1c0.1,0,0.1,0,0.2,0l0.1,0.1l1.9,2.9c0-0.1,0.1-0.1,0.1-0.2l1.8-2.7l0.1-0.1h0.1h0.9
			l-2.4,3.5l2.5,3.8h-1c-0.1,0-0.1,0-0.2-0.1l-0.1-0.1l-2-3.1c0,0.1-0.1,0.1-0.1,0.2l-1.9,2.8l-0.1,0.1c0,0-0.1,0.1-0.2,0.1h-0.9
			L218.3,78.8z"/>
		<path class="st0" d="M225.2,75.1h0.8c0.1,0,0.2,0,0.2,0.1s0.1,0.1,0.1,0.2l1.5,5.1c0,0.1,0.1,0.2,0.1,0.3s0,0.2,0.1,0.3
			c0-0.1,0-0.2,0.1-0.3s0.1-0.2,0.1-0.3l1.7-5.1c0-0.1,0.1-0.1,0.1-0.2c0.1,0,0.1-0.1,0.2-0.1h0.3c0.1,0,0.2,0,0.2,0.1
			c0.1,0,0.1,0.1,0.1,0.2l1.7,5.1c0.1,0.2,0.1,0.4,0.2,0.6c0-0.1,0-0.2,0.1-0.3s0-0.2,0.1-0.3l1.5-5.1c0-0.1,0.1-0.1,0.1-0.2
			c0.1,0,0.1-0.1,0.2-0.1h0.8l-2.3,7.3h-0.9l-1.8-5.5c0-0.1-0.1-0.2-0.1-0.4c0,0.1,0,0.1,0,0.2s0,0.1,0,0.2l-1.9,5.5h-0.9
			L225.2,75.1z"/>
		<path class="st0" d="M243.6,78.8c0,0.5-0.1,1-0.3,1.5s-0.4,0.8-0.7,1.2c-0.3,0.3-0.7,0.6-1.1,0.8s-0.9,0.3-1.5,0.3
			c-0.5,0-1-0.1-1.5-0.3c-0.4-0.2-0.8-0.4-1.1-0.8c-0.3-0.3-0.6-0.7-0.7-1.2c-0.2-0.5-0.3-1-0.3-1.5s0.1-1,0.3-1.5s0.4-0.8,0.7-1.2
			s0.7-0.6,1.1-0.8c0.4-0.2,0.9-0.3,1.5-0.3c0.5,0,1,0.1,1.5,0.3c0.4,0.2,0.8,0.4,1.1,0.8c0.3,0.3,0.6,0.7,0.7,1.2
			C243.5,77.8,243.6,78.2,243.6,78.8z M242.6,78.8c0-0.4-0.1-0.8-0.2-1.2s-0.3-0.7-0.5-0.9s-0.5-0.4-0.8-0.6
			c-0.3-0.1-0.7-0.2-1.1-0.2s-0.7,0.1-1.1,0.2c-0.4,0.1-0.6,0.3-0.8,0.6c-0.2,0.2-0.4,0.5-0.5,0.9s-0.2,0.8-0.2,1.2
			c0,0.4,0.1,0.8,0.2,1.2s0.3,0.7,0.5,0.9c0.2,0.2,0.5,0.4,0.8,0.6c0.3,0.1,0.7,0.2,1.1,0.2s0.7-0.1,1.1-0.2
			c0.3-0.1,0.6-0.3,0.8-0.6c0.2-0.2,0.4-0.5,0.5-0.9C242.5,79.6,242.6,79.2,242.6,78.8z"/>
		<path class="st0" d="M246.5,79.4v3h-1v-7.3h2.1c0.5,0,0.9,0,1.2,0.1s0.6,0.2,0.8,0.4c0.2,0.2,0.4,0.4,0.5,0.6s0.2,0.5,0.2,0.8
			s0,0.5-0.1,0.7s-0.2,0.4-0.4,0.6s-0.3,0.3-0.6,0.5c-0.2,0.1-0.5,0.2-0.8,0.3c0.1,0.1,0.2,0.2,0.3,0.3l2.1,2.9H250
			c-0.2,0-0.3-0.1-0.4-0.2l-1.9-2.6c-0.1-0.1-0.1-0.1-0.2-0.2c-0.1,0-0.2-0.1-0.3-0.1h-0.7L246.5,79.4L246.5,79.4z M246.5,78.8h1
			c0.3,0,0.5,0,0.8-0.1c0.2-0.1,0.4-0.2,0.5-0.3s0.3-0.3,0.3-0.5c0.1-0.2,0.1-0.4,0.1-0.6c0-0.4-0.1-0.8-0.4-1s-0.7-0.3-1.3-0.3
			h-1.1L246.5,78.8L246.5,78.8z"/>
		<path class="st0" d="M253.4,81.6h3.1v0.8h-4.1v-7.3h1V81.6z"/>
		<path class="st0" d="M264.4,78.8c0,0.5-0.1,1-0.3,1.5c-0.2,0.4-0.4,0.8-0.7,1.1s-0.7,0.6-1.1,0.7c-0.4,0.2-0.9,0.3-1.5,0.3h-2.7
			v-7.3h2.7c0.5,0,1,0.1,1.5,0.3c0.4,0.2,0.8,0.4,1.1,0.7c0.3,0.3,0.6,0.7,0.7,1.1C264.3,77.8,264.4,78.2,264.4,78.8z M263.4,78.8
			c0-0.4-0.1-0.8-0.2-1.2s-0.3-0.6-0.5-0.9c-0.2-0.2-0.5-0.4-0.8-0.6c-0.3-0.1-0.7-0.2-1.1-0.2h-1.7v5.7h1.7c0.4,0,0.7-0.1,1.1-0.2
			s0.6-0.3,0.8-0.6c0.2-0.3,0.4-0.5,0.5-0.9C263.4,79.6,263.4,79.2,263.4,78.8z"/>
	</g>
	<g>
		<path class="st1" d="M70.6,55.8l0.6,0.1l-2.1,6.6H50.2v-0.7h0.9c1,0,1.8-0.3,2.2-1c0.3-0.4,0.4-1.3,0.4-2.7V42.5
			c0-1.5-0.2-2.5-0.5-2.9c-0.5-0.5-1.2-0.8-2.1-0.8h-0.9v-0.6h11.1v0.7c-1.3,0-2.2,0.1-2.7,0.4s-0.9,0.6-1.1,1s-0.3,1.3-0.3,2.8
			v15.4c0,1,0.1,1.7,0.3,2.1c0.1,0.2,0.4,0.4,0.7,0.5s1.2,0.2,2.8,0.2h1.8c1.9,0,3.2-0.1,3.9-0.4c0.8-0.3,1.5-0.8,2.1-1.5
			S70,57.3,70.6,55.8z"/>
		<path class="st1" d="M79.7,39.5v9.7h5.4c1.4,0,2.3-0.2,2.8-0.6c0.6-0.6,1-1.5,1-2.9h0.7v8.5H89c-0.2-1.2-0.3-1.9-0.5-2.3
			s-0.6-0.8-1.1-1s-1.2-0.4-2.3-0.4h-5.4v8.1c0,1.1,0.1,1.8,0.2,2s0.3,0.4,0.5,0.6c0.2,0.1,0.7,0.2,1.4,0.2H86c1.4,0,2.4-0.1,3-0.3
			s1.2-0.6,1.8-1.1c0.7-0.7,1.5-1.9,2.3-3.4h0.7l-2.1,6.1H72.8V62h0.9c0.6,0,1.1-0.1,1.6-0.4c0.4-0.2,0.7-0.5,0.8-0.9
			c0.1-0.4,0.2-1.2,0.2-2.4v-16c0-1.6-0.2-2.5-0.5-2.9c-0.4-0.5-1.2-0.7-2.2-0.7h-0.9v-0.6h18.9l0.3,5.4h-0.7
			c-0.2-1.3-0.5-2.2-0.8-2.6s-0.8-0.9-1.4-1c-0.5-0.2-1.3-0.3-2.5-0.3L79.7,39.5L79.7,39.5z"/>
		<path class="st1" d="M117.3,37.5l0.6,7.7h-0.6c-0.6-1.9-1.5-3.4-2.5-4.4c-1.5-1.4-3.3-2.1-5.6-2.1c-3.1,0-5.5,1.2-7.1,3.7
			c-1.4,2.1-2,4.6-2,7.4c0,2.3,0.5,4.5,1.4,6.4s2.1,3.3,3.5,4.2c1.5,0.9,3,1.3,4.5,1.3c0.9,0,1.8-0.1,2.6-0.3c0.8-0.2,1.7-0.6,2.5-1
			v-7.1c0-1.2-0.1-2-0.3-2.4s-0.5-0.7-0.9-0.9s-1.1-0.3-2.1-0.3V49h9.5v0.7h-0.4c-0.9,0-1.6,0.3-1.9,0.9c-0.2,0.5-0.4,1.3-0.4,2.6
			v7.5c-1.4,0.7-2.8,1.3-4.1,1.6c-1.4,0.3-2.9,0.5-4.5,0.5c-4.7,0-8.3-1.5-10.8-4.5c-1.8-2.3-2.8-4.9-2.8-7.9c0-2.1,0.5-4.2,1.5-6.2
			c1.2-2.3,2.9-4.2,5.1-5.4c1.8-1.1,3.9-1.6,6.3-1.6c0.9,0,1.7,0.1,2.4,0.2s1.8,0.5,3.1,1c0.7,0.2,1.1,0.4,1.4,0.4
			c0.2,0,0.4-0.1,0.6-0.3s0.3-0.6,0.3-1.2h0.7L117.3,37.5z"/>
		<path class="st1" d="M138.2,54.5h-9.5l-1.7,3.8c-0.4,0.9-0.6,1.7-0.6,2.1s0.2,0.7,0.5,1c0.4,0.3,1.1,0.5,2.3,0.5v0.7h-7.7v-0.7
			c1-0.2,1.7-0.4,2-0.7c0.6-0.6,1.3-1.8,2-3.5l8.6-20.2h0.6l8.5,20.4c0.7,1.6,1.3,2.7,1.9,3.2s1.3,0.8,2.3,0.8v0.7h-9.7v-0.7
			c1,0,1.6-0.2,2-0.5c0.3-0.3,0.5-0.6,0.5-1c0-0.5-0.2-1.4-0.7-2.5L138.2,54.5z M137.7,53l-4.2-9.9l-4.3,9.9H137.7z"/>
		<path class="st1" d="M169.2,55.8l0.6,0.1l-2.1,6.6h-18.9v-0.7h0.9c1,0,1.8-0.3,2.2-1c0.3-0.4,0.4-1.3,0.4-2.7V42.5
			c0-1.5-0.2-2.5-0.5-2.9c-0.5-0.5-1.2-0.8-2.1-0.8h-0.9v-0.6h11.1v0.7c-1.3,0-2.2,0.1-2.7,0.4s-0.9,0.6-1.1,1
			c-0.2,0.4-0.3,1.3-0.3,2.8v15.4c0,1,0.1,1.7,0.3,2.1c0.1,0.2,0.4,0.4,0.7,0.5s1.2,0.2,2.8,0.2h1.8c1.9,0,3.2-0.1,3.9-0.4
			c0.8-0.3,1.5-0.8,2.1-1.5C168,58.5,168.6,57.3,169.2,55.8z"/>
	</g>
	<g>
		<g>
			<g class="st2">
				<g class="st2">
					<g>
						
							<linearGradient id="SVGID_1_" gradientUnits="userSpaceOnUse" x1="21.982" y1="723.75" x2="11.0333" y2="723.75" gradientTransform="matrix(1 0 0 1 0 -721.4)">
							<stop  offset="0" style="stop-color:#A4282E"/>
							<stop  offset="1" style="stop-color:#E4282B"/>
						</linearGradient>
						<path class="st3" d="M17.5,2c2.4,0.5,4.2,1.2,4.5,1.4c-0.1,0-0.2,0-1.6-0.4c-3.1-0.9-5.7-1.6-9.4-1.7
							C13.2,1.4,15.4,1.6,17.5,2"/>
						
							<linearGradient id="SVGID_2_" gradientUnits="userSpaceOnUse" x1="27.8208" y1="726.7566" x2="18.9296" y2="726.7566" gradientTransform="matrix(1 0 0 1 0 -721.4)">
							<stop  offset="0" style="stop-color:#A4282E"/>
							<stop  offset="1" style="stop-color:#E4282B"/>
						</linearGradient>
						<path class="st4" d="M25.1,5.2c2.2,1.3,3.2,2.5,2.5,2.7c-1.4,0.3-8.4-4.6-8.7-5c0,0,0,0,0-0.1c0,0,0,0,0.1,0
							C19.8,2.9,22.7,3.8,25.1,5.2"/>
						
							<linearGradient id="SVGID_3_" gradientUnits="userSpaceOnUse" x1="29.6693" y1="731.9657" x2="21.8464" y2="731.9657" gradientTransform="matrix(1 0 0 1 0 -721.4)">
							<stop  offset="0" style="stop-color:#A4282E"/>
							<stop  offset="1" style="stop-color:#E4282B"/>
						</linearGradient>
						<path class="st5" d="M28.7,10.6c1.6,2.1,1.2,4-0.8,3.7c-3.7-0.4-7.1-6.1-5.8-7.3c0.2-0.2,0.4-0.2,0.7-0.2
							C24.7,6.9,27.4,8.9,28.7,10.6"/>
						
							<linearGradient id="SVGID_4_" gradientUnits="userSpaceOnUse" x1="27.4327" y1="739.1885" x2="18.337" y2="739.1885" gradientTransform="matrix(1 0 0 1 0 -721.4)">
							<stop  offset="0" style="stop-color:#A4282E"/>
							<stop  offset="1" style="stop-color:#E4282B"/>
						</linearGradient>
						<path class="st6" d="M27.3,18c1,3.7-2.6,5.9-6,3.7c-4-2.5-3.7-7.9-0.4-8.6c0.2,0,0.5-0.1,0.7-0.1C24.3,13.1,26.7,15.6,27.3,18
							"/>
						
							<linearGradient id="SVGID_5_" gradientUnits="userSpaceOnUse" x1="21.2642" y1="747.6576" x2="10.1916" y2="747.6576" gradientTransform="matrix(1 0 0 1 0 -721.4)">
							<stop  offset="0" style="stop-color:#A4282E"/>
							<stop  offset="1" style="stop-color:#E4282B"/>
						</linearGradient>
						<path class="st7" d="M21.3,26.6c0,4.8-5.8,7-9.4,3.5c-3.3-3.2-1.7-9.1,3.6-9.4C19.5,21,21.3,24.3,21.3,26.6"/>
						
							<linearGradient id="SVGID_6_" gradientUnits="userSpaceOnUse" x1="12.1531" y1="757.3091" x2="0.5221" y2="757.3091" gradientTransform="matrix(1 0 0 1 0 -721.4)">
							<stop  offset="0" style="stop-color:#A4282E"/>
							<stop  offset="1" style="stop-color:#E4282B"/>
						</linearGradient>
						<path class="st8" d="M12.1,36.5c-0.5,5.2-7.1,7.2-10.3,3.2c-2.6-3.2-1.3-9.4,4.4-9.7C10.3,30,12.4,33.3,12.1,36.5"/>
						
							<linearGradient id="SVGID_7_" gradientUnits="userSpaceOnUse" x1="30.7821" y1="726.75" x2="20.6821" y2="726.75" gradientTransform="matrix(1 0 0 1 0 -721.4)">
							<stop  offset="0" style="stop-color:#A4282E"/>
							<stop  offset="1" style="stop-color:#E4282B"/>
						</linearGradient>
						<path class="st9" d="M30.8,7.9c-6.6-3.8-6.6-3.8-10.1-5.1l0,0C24.4,4,27.8,5.7,30.8,7.9"/>
						
							<linearGradient id="SVGID_8_" gradientUnits="userSpaceOnUse" x1="36.4612" y1="731.95" x2="28.2675" y2="731.95" gradientTransform="matrix(1 0 0 1 0 -721.4)">
							<stop  offset="0" style="stop-color:#A4282E"/>
							<stop  offset="1" style="stop-color:#E4282B"/>
						</linearGradient>
						<path class="st10" d="M33.9,10.6c2.2,2.1,3.1,3.7,2.4,3.7c-0.2,0-1.1-0.2-3.6-2.6c0,0-4.8-4.6-4.3-4.9c0,0,0,0,0.1,0
							C29.1,6.9,31.6,8.4,33.9,10.6"/>
						
							<linearGradient id="SVGID_9_" gradientUnits="userSpaceOnUse" x1="38.2435" y1="739.1996" x2="31.0735" y2="739.1996" gradientTransform="matrix(1 0 0 1 0 -721.4)">
							<stop  offset="0" style="stop-color:#A4282E"/>
							<stop  offset="1" style="stop-color:#E4282B"/>
						</linearGradient>
						<path class="st11" d="M37.4,18c1.5,2.9,1,5.1-1,4.5c-3.6-1.1-6.6-8.5-4.8-9.4C31.7,13,31.9,13,32,13
							C33.9,13.1,36.3,15.6,37.4,18"/>
						
							<linearGradient id="SVGID_10_" gradientUnits="userSpaceOnUse" x1="36.0865" y1="747.6267" x2="27.6808" y2="747.6267" gradientTransform="matrix(1 0 0 1 0 -721.4)">
							<stop  offset="0" style="stop-color:#A4282E"/>
							<stop  offset="1" style="stop-color:#E4282B"/>
						</linearGradient>
						<path class="st12" d="M36,26.6c0.6,4.2-2.6,6.6-5.6,4.2c-3.6-2.9-3.6-9.6,0.1-10.1c0.1,0,0.3,0,0.4,0C33.6,21,35.6,24,36,26.6
							"/>
						
							<linearGradient id="SVGID_11_" gradientUnits="userSpaceOnUse" x1="30.0391" y1="757.3057" x2="19.7881" y2="757.3057" gradientTransform="matrix(1 0 0 1 0 -721.4)">
							<stop  offset="0" style="stop-color:#A4282E"/>
							<stop  offset="1" style="stop-color:#E4282B"/>
						</linearGradient>
						<path class="st13" d="M30,36.5c-0.4,4.9-5.6,7.1-8.7,3.6c-3-3.4-1.4-9.9,3.6-10.1C28.9,30,30.3,33.8,30,36.5"/>
						
							<linearGradient id="SVGID_12_" gradientUnits="userSpaceOnUse" x1="21.2012" y1="766.6193" x2="10.1533" y2="766.6193" gradientTransform="matrix(1 0 0 1 0 -721.4)">
							<stop  offset="0" style="stop-color:#A4282E"/>
							<stop  offset="1" style="stop-color:#E4282B"/>
						</linearGradient>
						<path class="st14" d="M21.1,46c-1,4.9-7.2,6.5-10,2.4C8.8,45,10.9,40,16,39.7C20.3,40,21.6,43.5,21.1,46"/>
						
							<linearGradient id="SVGID_13_" gradientUnits="userSpaceOnUse" x1="42.2" y1="739.15" x2="36.2659" y2="739.15" gradientTransform="matrix(1 0 0 1 0 -721.4)">
							<stop  offset="0" style="stop-color:#A4282E"/>
							<stop  offset="1" style="stop-color:#E4282B"/>
						</linearGradient>
						<path class="st15" d="M42.2,22.5c-0.3-0.4-5.9-9.5-5.9-9.5l0,0C38.8,15.7,40.8,19,42.2,22.5"/>
						
							<linearGradient id="SVGID_14_" gradientUnits="userSpaceOnUse" x1="43.7785" y1="747.6961" x2="39.3162" y2="747.6961" gradientTransform="matrix(1 0 0 1 0 -721.4)">
							<stop  offset="0" style="stop-color:#A4282E"/>
							<stop  offset="1" style="stop-color:#E4282B"/>
						</linearGradient>
						<path class="st16" d="M43.3,26.6c0.8,3.3,0.5,5.7-0.7,5.1c-2.1-1.2-4.4-10.4-2.8-10.9h0.1C41.2,21,42.6,24,43.3,26.6"/>
						
							<linearGradient id="SVGID_15_" gradientUnits="userSpaceOnUse" x1="41.8533" y1="757.3298" x2="35.663" y2="757.3298" gradientTransform="matrix(1 0 0 1 0 -721.4)">
							<stop  offset="0" style="stop-color:#A4282E"/>
							<stop  offset="1" style="stop-color:#E4282B"/>
						</linearGradient>
						<path class="st17" d="M41.9,36.5c-0.3,4.2-2.6,6.6-4.6,4.7c-2.6-2.6-2-10.9,1.5-11.2C40.9,30,42,33.3,41.9,36.5"/>
						
							<linearGradient id="SVGID_16_" gradientUnits="userSpaceOnUse" x1="35.9761" y1="766.6778" x2="27.6055" y2="766.6778" gradientTransform="matrix(1 0 0 1 0 -721.4)">
							<stop  offset="0" style="stop-color:#A4282E"/>
							<stop  offset="1" style="stop-color:#E4282B"/>
						</linearGradient>
						<path class="st18" d="M35.7,46c-1.4,4.4-5.7,6.3-7.4,3.3c-1.8-3.2,0.5-9.2,4.6-9.5C35.7,40,36.5,43.1,35.7,46"/>
						
							<linearGradient id="SVGID_17_" gradientUnits="userSpaceOnUse" x1="27.2678" y1="775.1878" x2="18.271" y2="775.1878" gradientTransform="matrix(1 0 0 1 0 -721.4)">
							<stop  offset="0" style="stop-color:#A4282E"/>
							<stop  offset="1" style="stop-color:#E4282B"/>
						</linearGradient>
						<path class="st19" d="M26.8,54.5c-1.8,3.8-6.7,5.6-8.2,2.1c-1.2-3,1.3-7.3,5.4-7.5C27.2,49.2,27.9,52,26.8,54.5"/>
						
							<linearGradient id="SVGID_18_" gradientUnits="userSpaceOnUse" x1="44.757" y1="757.2" x2="44.1154" y2="757.2" gradientTransform="matrix(1 0 0 1 0 -721.4)">
							<stop  offset="0" style="stop-color:#A4282E"/>
							<stop  offset="1" style="stop-color:#E4282B"/>
						</linearGradient>
						<path class="st20" d="M44.8,35.5c0,2.1-0.2,4.2-0.6,6.2c-0.2-1,0-11.6,0.1-11.8l0,0C44.6,31.7,44.8,33.5,44.8,35.5"/>
						
							<linearGradient id="SVGID_19_" gradientUnits="userSpaceOnUse" x1="43.6767" y1="766.6888" x2="39.1464" y2="766.6888" gradientTransform="matrix(1 0 0 1 0 -721.4)">
							<stop  offset="0" style="stop-color:#A4282E"/>
							<stop  offset="1" style="stop-color:#E4282B"/>
						</linearGradient>
						<path class="st21" d="M42.9,46c-1.2,3.5-2.9,5.7-3.5,4.4c-0.9-1.7,1.4-10.2,3.6-10.6C44.1,40,43.8,43.1,42.9,46"/>
						
							<linearGradient id="SVGID_20_" gradientUnits="userSpaceOnUse" x1="38.0245" y1="775.2043" x2="30.7829" y2="775.2043" gradientTransform="matrix(1 0 0 1 0 -721.4)">
							<stop  offset="0" style="stop-color:#A4282E"/>
							<stop  offset="1" style="stop-color:#E4282B"/>
						</linearGradient>
						<path class="st22" d="M36.6,54.5c-1.9,3-5.2,5.2-5.7,3.3c-0.6-2.3,2.8-8.5,6-8.7C38.7,49.2,38.2,52,36.6,54.5"/>
						
							<linearGradient id="SVGID_21_" gradientUnits="userSpaceOnUse" x1="29.3878" y1="782.1979" x2="21.592" y2="782.1979" gradientTransform="matrix(1 0 0 1 0 -721.4)">
							<stop  offset="0" style="stop-color:#A4282E"/>
							<stop  offset="1" style="stop-color:#E4282B"/>
						</linearGradient>
						<path class="st23" d="M27.7,61.5c-1.9,2-6.1,4.3-6.1,2.1c0-2,3-6.3,6.4-6.5C30.2,57.1,29.6,59.5,27.7,61.5"/>
						
							<linearGradient id="SVGID_22_" gradientUnits="userSpaceOnUse" x1="41.9734" y1="775.2" x2="35.8825" y2="775.2" gradientTransform="matrix(1 0 0 1 0 -721.4)">
							<stop  offset="0" style="stop-color:#A4282E"/>
							<stop  offset="1" style="stop-color:#E4282B"/>
						</linearGradient>
						<path class="st24" d="M35.9,58.5c0-0.1,6-9.3,6.1-9.4l0,0C40.5,52.5,38.4,55.7,35.9,58.5"/>
						
							<linearGradient id="SVGID_23_" gradientUnits="userSpaceOnUse" x1="36.0912" y1="782.2688" x2="27.8012" y2="782.2688" gradientTransform="matrix(1 0 0 1 0 -721.4)">
							<stop  offset="0" style="stop-color:#A4282E"/>
							<stop  offset="1" style="stop-color:#E4282B"/>
						</linearGradient>
						<path class="st25" d="M32.6,61.5c-2.3,1.9-4.7,3.3-4.8,3c-0.1-0.3,3.6-3.9,4.9-5.1c1.1-1,2.5-2.1,3.2-2.2
							C36.7,57.1,35,59.5,32.6,61.5"/>
						
							<linearGradient id="SVGID_24_" gradientUnits="userSpaceOnUse" x1="27.411" y1="787.35" x2="18.4821" y2="787.35" gradientTransform="matrix(1 0 0 1 0 -721.4)">
							<stop  offset="0" style="stop-color:#A4282E"/>
							<stop  offset="1" style="stop-color:#E4282B"/>
						</linearGradient>
						<path class="st26" d="M23.7,66.6c-2.4,1.2-4.9,1.8-5.2,1.8c0,0,0,0,0-0.1c0,0,6.5-4.7,8.6-4.8c0.9,0.1-0.3,1.2-0.6,1.4
							C25.8,65.3,24.8,65.9,23.7,66.6"/>
						
							<linearGradient id="SVGID_25_" gradientUnits="userSpaceOnUse" x1="30.3" y1="787.25" x2="20.1" y2="787.25" gradientTransform="matrix(1 0 0 1 0 -721.4)">
							<stop  offset="0" style="stop-color:#A4282E"/>
							<stop  offset="1" style="stop-color:#E4282B"/>
						</linearGradient>
						<path class="st27" d="M20.1,68.3c1-0.3,2.6-0.8,4.6-1.8c1.9-0.9,3.7-2.1,5.6-3.1l0,0C27.3,65.6,23.8,67.2,20.1,68.3"/>
						
							<linearGradient id="SVGID_26_" gradientUnits="userSpaceOnUse" x1="21.4346" y1="790.05" x2="10.617" y2="790.05" gradientTransform="matrix(1 0 0 1 0 -721.4)">
							<stop  offset="0" style="stop-color:#A4282E"/>
							<stop  offset="1" style="stop-color:#E4282B"/>
						</linearGradient>
						<path class="st28" d="M15.8,69.2c-1.7,0.3-3.4,0.4-5.1,0.4c3.8,0,6.4-0.7,9.3-1.5c0.9-0.3,1.3-0.4,1.5-0.4
							C21.2,67.9,18.7,68.8,15.8,69.2"/>
					</g>
				</g>
			</g>
		</g>
	</g>
	<g>
		<path class="st0" d="M71.5,7.2l0.6,7.7h-0.6C70.9,13,70,11.5,69,10.5c-1.5-1.4-3.3-2.1-5.6-2.1c-3.1,0-5.5,1.2-7.1,3.7
			c-1.4,2.1-2,4.6-2,7.4c0,2.3,0.5,4.5,1.4,6.4s2.1,3.3,3.5,4.2c1.5,0.9,3,1.3,4.5,1.3c0.9,0,1.8-0.1,2.6-0.3c0.8-0.2,1.7-0.6,2.5-1
			V23c0-1.2-0.1-2-0.3-2.4c-0.2-0.4-0.5-0.7-0.9-0.9c-0.4-0.2-1.1-0.3-2.1-0.3v-0.7H75v0.7h-0.4c-0.9,0-1.6,0.3-1.9,0.9
			c-0.2,0.5-0.4,1.3-0.4,2.6v7.5c-1.4,0.7-2.8,1.3-4.1,1.6c-1.4,0.3-2.9,0.5-4.5,0.5c-4.7,0-8.3-1.5-10.8-4.5
			c-1.8-2.3-2.8-4.9-2.8-7.9c0-2.1,0.5-4.2,1.5-6.2c1.2-2.3,2.9-4.2,5.1-5.4c1.8-1.1,3.9-1.6,6.3-1.6c0.9,0,1.7,0.1,2.4,0.2
			s1.8,0.5,3.1,1c0.7,0.2,1.1,0.4,1.4,0.4c0.2,0,0.4-0.1,0.6-0.3s0.3-0.6,0.3-1.2h0.7C71.5,7,71.5,7.2,71.5,7.2z"/>
		<path class="st0" d="M83.1,20.8v7.1c0,1.5,0.2,2.5,0.5,2.9c0.5,0.5,1.1,0.8,2.1,0.8h0.9v0.7H76.1v-0.7H77c1,0,1.8-0.3,2.2-1
			c0.2-0.4,0.4-1.3,0.4-2.7V12.1c0-1.5-0.2-2.5-0.5-2.9c-0.5-0.5-1.2-0.8-2.1-0.8h-0.9V7.7h9c2.2,0,3.9,0.2,5.2,0.7s2.3,1.2,3.2,2.3
			c0.9,1.1,1.3,2.3,1.3,3.8c0,2-0.7,3.6-2,4.9s-3.2,1.9-5.6,1.9c-0.6,0-1.2,0-1.9-0.1S83.9,21,83.1,20.8z M83.1,19.8
			c0.6,0.1,1.2,0.2,1.7,0.3c0.5,0.1,0.9,0.1,1.3,0.1c1.3,0,2.3-0.5,3.2-1.5c0.9-1,1.4-2.2,1.4-3.8c0-1.1-0.2-2-0.6-3
			c-0.4-0.9-1-1.6-1.8-2c-0.8-0.5-1.7-0.7-2.7-0.7c-0.6,0-1.4,0.1-2.4,0.3L83.1,19.8L83.1,19.8z"/>
		<path class="st0" d="M113.1,7.2v8.5h-0.7c-0.2-1.6-0.6-2.9-1.2-3.9s-1.4-1.7-2.4-2.3s-2.1-0.9-3.2-0.9c-1.3,0-2.3,0.4-3.1,1.2
			s-1.2,1.6-1.2,2.6c0,0.7,0.3,1.4,0.8,2.1c0.7,0.9,2.5,2.1,5.3,3.6c2.3,1.2,3.8,2.2,4.7,2.8s1.5,1.4,1.9,2.3
			c0.5,0.9,0.7,1.8,0.7,2.8c0,1.9-0.7,3.4-2.2,4.8c-1.4,1.3-3.3,2-5.5,2c-0.7,0-1.4-0.1-2-0.2c-0.4-0.1-1.1-0.3-2.3-0.7
			c-1.2-0.4-1.9-0.6-2.2-0.6s-0.5,0.1-0.7,0.3c-0.2,0.2-0.3,0.6-0.4,1.1h-0.7v-8.4h0.7c0.3,1.8,0.7,3.1,1.3,3.9
			c0.5,0.9,1.3,1.6,2.4,2.2s2.3,0.9,3.6,0.9c1.5,0,2.7-0.4,3.6-1.2c0.9-0.8,1.3-1.7,1.3-2.8c0-0.6-0.2-1.2-0.5-1.8s-0.9-1.2-1.6-1.7
			c-0.5-0.4-1.7-1.1-3.8-2.3c-2.1-1.2-3.6-2.1-4.5-2.8s-1.6-1.5-2-2.3c-0.5-0.8-0.7-1.8-0.7-2.8c0-1.8,0.7-3.3,2-4.5
			c1.3-1.3,3.1-1.9,5.1-1.9c1.3,0,2.7,0.3,4.2,1c0.7,0.3,1.1,0.5,1.4,0.5s0.6-0.1,0.8-0.3s0.4-0.6,0.5-1.1L113.1,7.2L113.1,7.2
			L113.1,7.2z"/>
	</g>
</g>
</svg>
